<?xml version="1.0" encoding="utf-8"?>
<!-- Generator: Adobe Illustrator 17.0.1, SVG Export Plug-In . SVG Version: 6.00 Build 0)  -->
<!DOCTYPE svg PUBLIC "-//W3C//DTD SVG 1.1//EN" "http://www.w3.org/Graphics/SVG/1.1/DTD/svg11.dtd">
<svg version="1.1" id="Calque_1" xmlns="http://www.w3.org/2000/svg" xmlns:xlink="http://www.w3.org/1999/xlink" x="0px" y="0px"
	 width="140.007px" height="38.875px" viewBox="0 0 140.007 38.875" enable-background="new 0 0 140.007 38.875"
	 xml:space="preserve">
<g>
	<path fill="#010202" d="M0,25.579v-0.397c0-8.431,6.447-13.639,14.382-13.639c7.291,0,13.49,4.166,13.676,13.49v2.38H9.869
		c0.248,3.125,2.083,4.811,4.86,4.811c2.728,0,3.77-1.29,4.067-2.777h9.126c-0.794,5.951-5.307,9.423-13.54,9.423
		C6.1,38.871,0,34.159,0,25.579z M18.449,22.306c-0.099-2.778-1.438-4.464-4.067-4.464c-2.381,0-4.066,1.538-4.463,4.464H18.449z"/>
	<path fill="#010202" d="M29.997,1.033h9.771v21.079l6.299-9.82h10.019L48.1,23.897L56.73,38.23H45.918l-6.15-10.812V38.23h-9.771
		V1.033z"/>
	<path fill="#010202" d="M57.925,12.292h9.721V38.23h-9.721V12.292z"/>
	<path fill="#010202" d="M71.522,12.292h9.771v4.166c1.438-2.728,4.215-4.86,8.58-4.86c4.91,0,8.332,3.125,8.332,9.572V38.23h-9.77
		V23.352c0-2.628-0.943-3.968-3.273-3.968c-2.43,0-3.868,1.438-3.868,4.513V38.23h-9.771V12.292z"/>
	<path fill="#010202" d="M100.144,25.583v-0.396c0-8.431,6.299-13.589,14.482-13.589c8.085,0,14.383,5.009,14.383,13.342v0.397
		c0,8.531-6.348,13.54-14.432,13.54C106.492,38.875,100.144,34.114,100.144,25.583z M119.09,25.385v-0.348
		c0-4.066-1.438-6.249-4.464-6.249c-2.975,0-4.612,2.034-4.612,6.1v0.397c0,4.215,1.488,6.398,4.612,6.398
		C117.602,31.684,119.09,29.501,119.09,25.385z"/>
	<circle fill="#010202" cx="62.785" cy="5.179" r="5.179"/>
	<circle fill="#010202" cx="134.828" cy="33.696" r="5.179"/>
</g>
</svg>
