<?xml version="1.0" encoding="utf-8"?>
<!-- Generator: Adobe Illustrator 17.0.1, SVG Export Plug-In . SVG Version: 6.00 Build 0)  -->
<!DOCTYPE svg PUBLIC "-//W3C//DTD SVG 1.1//EN" "http://www.w3.org/Graphics/SVG/1.1/DTD/svg11.dtd">
<svg version="1.1" id="Calque_1" xmlns="http://www.w3.org/2000/svg" xmlns:xlink="http://www.w3.org/1999/xlink" x="0px" y="0px"
	 width="149.18px" height="30.14px" viewBox="0 0 149.18 30.14" enable-background="new 0 0 149.18 30.14" xml:space="preserve">
<g>
	<path stroke="#000000" stroke-miterlimit="10" d="M111.961,8.897v16.44c0,1.208,0.028,2.585,0.112,3.513h-2.22l-0.112-2.361h-0.056
		c-0.759,1.518-2.417,2.67-4.637,2.67c-3.288,0-5.817-2.782-5.817-6.914c-0.028-4.525,2.782-7.307,6.098-7.307
		c2.079,0,3.485,0.984,4.103,2.08h0.056V8.897H111.961z M109.488,20.785c0-0.309-0.028-0.731-0.112-1.04
		c-0.365-1.574-1.714-2.866-3.569-2.866c-2.557,0-4.075,2.248-4.075,5.255c0,2.754,1.349,5.03,4.019,5.03
		c1.658,0,3.176-1.096,3.625-2.951c0.084-0.337,0.112-0.674,0.112-1.068V20.785z"/>
	<path stroke="#000000" stroke-miterlimit="10" d="M123.597,28.85l-0.197-1.714h-0.084c-0.759,1.068-2.22,2.024-4.159,2.024
		c-2.754,0-4.159-1.939-4.159-3.906c0-3.288,2.923-5.087,8.178-5.059v-0.281c0-1.124-0.309-3.147-3.092-3.147
		c-1.265,0-2.585,0.393-3.541,1.012l-0.562-1.63c1.124-0.731,2.754-1.208,4.468-1.208c4.159,0,5.171,2.838,5.171,5.564v5.087
		c0,1.18,0.056,2.333,0.225,3.26H123.597z M123.231,21.909c-2.698-0.056-5.761,0.422-5.761,3.063c0,1.602,1.068,2.361,2.333,2.361
		c1.77,0,2.895-1.124,3.288-2.276c0.084-0.253,0.14-0.534,0.14-0.787V21.909z"/>
	<path stroke="#000000" stroke-miterlimit="10" d="M132.477,11.342v3.906h3.541v1.883h-3.541v7.335c0,1.686,0.478,2.642,1.855,2.642
		c0.646,0,1.124-0.084,1.433-0.169l0.112,1.855c-0.478,0.197-1.237,0.337-2.192,0.337c-1.152,0-2.08-0.365-2.67-1.04
		c-0.703-0.731-0.956-1.939-0.956-3.541v-7.419h-2.108v-1.883h2.108v-3.26L132.477,11.342z"/>
	<path stroke="#000000" stroke-miterlimit="10" d="M146.332,28.85l-0.197-1.714h-0.084c-0.759,1.068-2.22,2.024-4.159,2.024
		c-2.754,0-4.159-1.939-4.159-3.906c0-3.288,2.923-5.087,8.178-5.059v-0.281c0-1.124-0.309-3.147-3.092-3.147
		c-1.265,0-2.585,0.393-3.541,1.012l-0.562-1.63c1.124-0.731,2.754-1.208,4.468-1.208c4.159,0,5.171,2.838,5.171,5.564v5.087
		c0,1.18,0.056,2.333,0.225,3.26H146.332z M145.967,21.909c-2.698-0.056-5.761,0.422-5.761,3.063c0,1.602,1.068,2.361,2.333,2.361
		c1.77,0,2.895-1.124,3.288-2.276c0.084-0.253,0.14-0.534,0.14-0.787V21.909z"/>
</g>
<g>
	<path d="M2.98,17.179H0v-2.949h2.98v-2.17c0-3.101,1.746-5.271,4.944-5.271c1.017,0,2.165,0.153,2.946,0.332l-0.331,3.344
		c-0.361-0.209-0.875-0.539-1.744-0.539c-1.357,0-1.777,1.172-1.777,2.375v1.929h3.52v2.949h-3.52v12.554H2.98V17.179L2.98,17.179z"
		/>
	<path d="M33.357,0c0,0,4.037-0.108,4.037,3.918c0,4.026,0,25.814,0,25.814h-4.037V0L33.357,0z"/>
	<path d="M42.517,0c0,0,4.032-0.108,4.032,3.918c0,4.026,0,25.814,0,25.814h-4.032V0L42.517,0z"/>
	<path d="M65.678,14.235c0,0,4.036-0.111,4.036,3.917c0,4.025,0,11.655,0,11.655h-4.036V14.235L65.678,14.235z"/>
	<path d="M60.714,17.414c-1.228-0.424-2.138-0.667-3.611-0.667c-1.088,0-2.381,0.392-2.381,1.718c0,2.471,7.016,0.902,7.016,6.5
		c0,3.615-3.22,5.064-6.504,5.064c-1.536,0-3.096-0.275-4.576-0.665l0.242-3.315c1.262,0.636,2.591,1.025,3.979,1.025
		c1.016,0,2.644-0.389,2.644-1.894c0-3.045-7.015-0.963-7.015-6.566c0-3.34,2.919-4.819,6.077-4.819
		c1.902,0,3.138,0.305,4.403,0.573L60.714,17.414L60.714,17.414z"/>
	<polygon points="65.789,7.469 69.823,7.469 69.823,11.331 65.789,11.331 65.789,7.469 	"/>
	<polygon points="73.633,14.156 78.382,14.156 81.424,19.218 84.408,14.156 88.679,14.156 84.051,21.533 89.288,29.668 
		84.472,29.668 81.005,23.886 77.515,29.668 73.083,29.668 78.419,21.533 73.633,14.156 	"/>
	<path d="M28.628,29.779h-3.826V27.67h-0.061c-1.237,1.506-2.981,2.47-5.087,2.47c-3.675,0-5.274-2.59-5.274-6.077v-9.792h4.038
		v8.284c0,1.892,0.032,4.451,2.622,4.451c2.918,0,3.552-3.159,3.552-5.145v-7.59h4.036V29.779L28.628,29.779z"/>
</g>
</svg>
