<?xml version="1.0" encoding="utf-8"?>
<!-- Generator: Adobe Illustrator 17.1.0, SVG Export Plug-In . SVG Version: 6.00 Build 0)  -->
<!DOCTYPE svg PUBLIC "-//W3C//DTD SVG 1.1//EN" "http://www.w3.org/Graphics/SVG/1.1/DTD/svg11.dtd">
<svg version="1.1" id="Calque_1" xmlns="http://www.w3.org/2000/svg" xmlns:xlink="http://www.w3.org/1999/xlink" x="0px" y="0px"
	 viewBox="0 0 142.5 48.2" enable-background="new 0 0 142.5 48.2" xml:space="preserve">
<g>
	<g>
		<path d="M56.2,26.4h-3v-2.9h3v-2.2c0-3.1,1.7-5.3,4.9-5.3c1,0,2.2,0.2,2.9,0.3l-0.3,3.3c-0.4-0.2-0.9-0.5-1.7-0.5
			c-1.4,0-1.8,1.2-1.8,2.4v1.9h3.5v2.9h-3.5V39h-4V26.4L56.2,26.4z"/>
		<path d="M86.5,9.2c0,0,4-0.1,4,3.9c0,4,0,25.8,0,25.8h-4V9.2L86.5,9.2z"/>
		<path d="M95.7,9.2c0,0,4-0.1,4,3.9c0,4,0,25.8,0,25.8h-4V9.2L95.7,9.2z"/>
		<path d="M118.8,23.5c0,0,4-0.1,4,3.9c0,4,0,11.7,0,11.7h-4V23.5L118.8,23.5z"/>
		<path d="M113.9,26.6c-1.2-0.4-2.1-0.7-3.6-0.7c-1.1,0-2.4,0.4-2.4,1.7c0,2.5,7,0.9,7,6.5c0,3.6-3.2,5.1-6.5,5.1
			c-1.5,0-3.1-0.3-4.6-0.7l0.2-3.3c1.3,0.6,2.6,1,4,1c1,0,2.6-0.4,2.6-1.9c0-3-7-1-7-6.6c0-3.3,2.9-4.8,6.1-4.8
			c1.9,0,3.1,0.3,4.4,0.6L113.9,26.6L113.9,26.6z"/>
		<polygon points="119,16.7 123,16.7 123,20.6 119,20.6 119,16.7 		"/>
		<polygon points="126.8,23.4 131.6,23.4 134.6,28.4 137.6,23.4 141.8,23.4 137.2,30.8 142.5,38.9 137.6,38.9 134.2,33.1 
			130.7,38.9 126.3,38.9 131.6,30.8 126.8,23.4 		"/>
		<path d="M81.8,39H78v-2.1h-0.1c-1.2,1.5-3,2.5-5.1,2.5c-3.7,0-5.3-2.6-5.3-6.1v-9.8h4v8.3c0,1.9,0,4.5,2.6,4.5
			c2.9,0,3.6-3.2,3.6-5.1v-7.6h4V39L81.8,39z"/>
	</g>
	<path d="M48.3,22.1l0-0.4h-0.1C47,9.5,36.7,0,24.2,0C10.8,0,0,10.8,0,24.1c0,13.3,10.8,24.1,24.2,24.1c13.3,0,24.2-10.8,24.2-24.1
		C48.3,23.4,48.3,22.7,48.3,22.1z M4.7,21.8C5.9,12,14.3,4.6,24.2,4.6c9.9,0,18.3,7.4,19.5,17.2l0,0.2h-3.5l0-0.1
		C39,14,32.1,8.1,24.2,8.1c-6.9,0-13,4.3-15.2,10.8h13.5c-0.5-0.5-5.9-5.9-5.9-5.9l2.5-2.5L30.8,22H4.7L4.7,21.8z M43.7,26.3
		c-1.1,9.9-9.5,17.4-19.5,17.4c-10,0-18.4-7.5-19.5-17.4l0-0.2h3.5l0,0.1c1,8,7.9,14,16,14c6.9,0,12.9-4.3,15.2-10.8H25.9
		c0.5,0.5,5.9,5.9,5.9,5.9l-2.5,2.5L17.4,26.1h0.4c0,0,22.5,0,22.5,0h3.4L43.7,26.3z"/>
</g>
</svg>
