<?xml version="1.0" encoding="utf-8"?>
<!-- Generator: Adobe Illustrator 17.0.1, SVG Export Plug-In . SVG Version: 6.00 Build 0)  -->
<!DOCTYPE svg PUBLIC "-//W3C//DTD SVG 1.1//EN" "http://www.w3.org/Graphics/SVG/1.1/DTD/svg11.dtd">
<svg version="1.1" id="Calque_1" xmlns="http://www.w3.org/2000/svg" xmlns:xlink="http://www.w3.org/1999/xlink" x="0px" y="0px"
	 width="174.016px" height="30.14px" viewBox="0 0 174.016 30.14" enable-background="new 0 0 174.016 30.14" xml:space="preserve">
<g>
	<path stroke="#000000" stroke-miterlimit="10" d="M99.142,18.653c0-1.497-0.03-2.724-0.12-3.922h2.305l0.12,2.335h0.09
		c0.808-1.377,2.155-2.664,4.55-2.664c1.976,0,3.473,1.197,4.101,2.904h0.06c0.449-0.808,1.018-1.437,1.616-1.886
		c0.868-0.659,1.826-1.018,3.203-1.018c1.916,0,4.76,1.257,4.76,6.287v8.532h-2.575v-8.203c0-2.784-1.018-4.461-3.143-4.461
		c-1.497,0-2.664,1.108-3.113,2.395c-0.12,0.359-0.21,0.838-0.21,1.317v8.951h-2.575v-8.682c0-2.305-1.018-3.982-3.024-3.982
		c-1.647,0-2.844,1.317-3.263,2.634c-0.15,0.389-0.21,0.838-0.21,1.287v8.742h-2.575V18.653z"/>
	<path stroke="#000000" stroke-miterlimit="10" d="M125.577,22.455c0.06,3.562,2.335,5.029,4.97,5.029
		c1.886,0,3.024-0.329,4.012-0.748l0.449,1.886c-0.928,0.419-2.515,0.898-4.82,0.898c-4.46,0-7.125-2.934-7.125-7.305
		c0-4.371,2.575-7.814,6.796-7.814c4.73,0,5.988,4.161,5.988,6.826c0,0.539-0.06,0.958-0.09,1.227H125.577z M133.301,20.569
		c0.03-1.676-0.689-4.281-3.652-4.281c-2.664,0-3.832,2.455-4.042,4.281H133.301z"/>
	<path stroke="#000000" stroke-miterlimit="10" d="M151.622,7.966v17.513c0,1.287,0.03,2.754,0.12,3.742h-2.365l-0.12-2.515h-0.06
		c-0.808,1.617-2.575,2.844-4.94,2.844c-3.503,0-6.197-2.964-6.197-7.365c-0.03-4.82,2.964-7.784,6.496-7.784
		c2.215,0,3.712,1.048,4.371,2.215h0.06V7.966H151.622z M148.988,20.629c0-0.329-0.03-0.778-0.12-1.108
		c-0.389-1.677-1.826-3.054-3.802-3.054c-2.724,0-4.341,2.395-4.341,5.598c0,2.934,1.437,5.359,4.281,5.359
		c1.766,0,3.383-1.168,3.862-3.143c0.09-0.359,0.12-0.718,0.12-1.138V20.629z"/>
	<path stroke="#000000" stroke-miterlimit="10" d="M158.927,10.66c0.03,0.898-0.628,1.616-1.676,1.616
		c-0.928,0-1.587-0.718-1.587-1.616c0-0.928,0.689-1.647,1.647-1.647C158.298,9.013,158.927,9.732,158.927,10.66z M155.993,29.221
		v-14.49h2.635v14.49H155.993z"/>
	<path stroke="#000000" stroke-miterlimit="10" d="M171.022,29.221l-0.21-1.826h-0.09c-0.808,1.138-2.365,2.156-4.431,2.156
		c-2.934,0-4.431-2.066-4.431-4.161c0-3.503,3.114-5.419,8.712-5.389v-0.299c0-1.197-0.329-3.353-3.293-3.353
		c-1.347,0-2.754,0.419-3.772,1.078l-0.599-1.736c1.197-0.778,2.934-1.287,4.76-1.287c4.431,0,5.508,3.024,5.508,5.927v5.419
		c0,1.257,0.06,2.485,0.239,3.473H171.022z M170.632,21.826c-2.874-0.06-6.137,0.449-6.137,3.263c0,1.706,1.138,2.515,2.485,2.515
		c1.886,0,3.083-1.197,3.503-2.425c0.09-0.269,0.15-0.569,0.15-0.838V21.826z"/>
</g>
<g>
	<path d="M2.98,17.179H0v-2.949h2.98v-2.17c0-3.101,1.746-5.271,4.944-5.271c1.017,0,2.165,0.153,2.946,0.332l-0.331,3.344
		c-0.361-0.209-0.875-0.539-1.744-0.539c-1.357,0-1.777,1.172-1.777,2.375v1.929h3.52v2.949h-3.52v12.554H2.98V17.179L2.98,17.179z"
		/>
	<path d="M33.357,0c0,0,4.037-0.108,4.037,3.918c0,4.026,0,25.814,0,25.814h-4.037V0L33.357,0z"/>
	<path d="M42.517,0c0,0,4.032-0.108,4.032,3.918c0,4.026,0,25.814,0,25.814h-4.032V0L42.517,0z"/>
	<path d="M65.678,14.235c0,0,4.036-0.111,4.036,3.917c0,4.025,0,11.655,0,11.655h-4.036V14.235L65.678,14.235z"/>
	<path d="M60.714,17.414c-1.228-0.424-2.138-0.667-3.611-0.667c-1.088,0-2.381,0.392-2.381,1.718c0,2.471,7.016,0.902,7.016,6.5
		c0,3.615-3.22,5.064-6.504,5.064c-1.536,0-3.096-0.275-4.576-0.665l0.242-3.315c1.262,0.636,2.591,1.025,3.979,1.025
		c1.016,0,2.644-0.389,2.644-1.894c0-3.045-7.015-0.963-7.015-6.566c0-3.34,2.919-4.819,6.077-4.819
		c1.902,0,3.138,0.305,4.403,0.573L60.714,17.414L60.714,17.414z"/>
	<polygon points="65.789,7.469 69.823,7.469 69.823,11.331 65.789,11.331 65.789,7.469 	"/>
	<polygon points="73.633,14.156 78.382,14.156 81.424,19.218 84.408,14.156 88.679,14.156 84.051,21.533 89.288,29.668 
		84.472,29.668 81.005,23.886 77.515,29.668 73.083,29.668 78.419,21.533 73.633,14.156 	"/>
	<path d="M28.628,29.779h-3.826V27.67h-0.061c-1.237,1.506-2.981,2.47-5.087,2.47c-3.675,0-5.274-2.59-5.274-6.077v-9.792h4.038
		v8.284c0,1.892,0.032,4.451,2.622,4.451c2.918,0,3.552-3.159,3.552-5.145v-7.59h4.036V29.779L28.628,29.779z"/>
</g>
</svg>
