<?xml version="1.0" encoding="utf-8"?>
<!-- Generator: Adobe Illustrator 17.0.1, SVG Export Plug-In . SVG Version: 6.00 Build 0)  -->
<!DOCTYPE svg PUBLIC "-//W3C//DTD SVG 1.1//EN" "http://www.w3.org/Graphics/SVG/1.1/DTD/svg11.dtd">
<svg version="1.1" id="Calque_1" xmlns="http://www.w3.org/2000/svg" xmlns:xlink="http://www.w3.org/1999/xlink" x="0px" y="0px"
	 width="158.271px" height="30.14px" viewBox="0 0 158.271 30.14" enable-background="new 0 0 158.271 30.14" xml:space="preserve">
<g>
	<path stroke="#000000" stroke-miterlimit="10" d="M99.47,19.275c0-1.701-0.03-3.164-0.119-4.508h2.299l0.09,2.836h0.119
		c0.656-1.94,2.239-3.164,4-3.164c0.299,0,0.508,0.03,0.746,0.09v2.478c-0.269-0.06-0.537-0.09-0.896-0.09
		c-1.851,0-3.164,1.403-3.522,3.373c-0.06,0.358-0.12,0.776-0.12,1.224v7.702H99.47V19.275z"/>
	<path stroke="#000000" stroke-miterlimit="10" d="M110.396,22.47c0.06,3.552,2.329,5.015,4.955,5.015c1.881,0,3.015-0.328,4-0.746
		l0.448,1.881c-0.925,0.418-2.507,0.896-4.806,0.896c-4.448,0-7.105-2.926-7.105-7.284c0-4.358,2.567-7.791,6.776-7.791
		c4.717,0,5.971,4.149,5.971,6.806c0,0.537-0.06,0.955-0.09,1.224H110.396z M118.098,20.589c0.03-1.672-0.687-4.269-3.642-4.269
		c-2.657,0-3.821,2.448-4.03,4.269H118.098z"/>
	<path stroke="#000000" stroke-miterlimit="10" d="M127.053,10.618v4.149h3.761v2h-3.761v7.791c0,1.791,0.507,2.806,1.97,2.806
		c0.687,0,1.194-0.09,1.523-0.179l0.119,1.97c-0.508,0.209-1.314,0.358-2.329,0.358c-1.224,0-2.209-0.388-2.836-1.105
		c-0.746-0.776-1.015-2.06-1.015-3.761v-7.881h-2.239v-2h2.239v-3.463L127.053,10.618z"/>
	<path stroke="#000000" stroke-miterlimit="10" d="M141.77,29.216l-0.209-1.821h-0.09c-0.806,1.134-2.358,2.149-4.418,2.149
		c-2.925,0-4.418-2.06-4.418-4.15c0-3.493,3.105-5.403,8.687-5.373v-0.298c0-1.194-0.328-3.343-3.284-3.343
		c-1.343,0-2.746,0.418-3.761,1.075l-0.597-1.731c1.194-0.776,2.925-1.284,4.746-1.284c4.418,0,5.493,3.015,5.493,5.911v5.403
		c0,1.254,0.06,2.478,0.239,3.463H141.77z M141.382,21.843c-2.866-0.06-6.119,0.448-6.119,3.254c0,1.701,1.134,2.507,2.478,2.507
		c1.88,0,3.075-1.194,3.493-2.418c0.09-0.269,0.149-0.567,0.149-0.836V21.843z"/>
	<path stroke="#000000" stroke-miterlimit="10" d="M151.084,10.708c0.03,0.896-0.627,1.612-1.671,1.612
		c-0.926,0-1.582-0.716-1.582-1.612c0-0.925,0.687-1.642,1.642-1.642C150.457,9.066,151.084,9.783,151.084,10.708z M148.159,29.216
		V14.768h2.627v14.448H148.159z"/>
	<path stroke="#000000" stroke-miterlimit="10" d="M155.144,8.021h2.627v21.195h-2.627V8.021z"/>
</g>
<g>
	<path d="M2.98,17.179H0v-2.949h2.98v-2.17c0-3.101,1.746-5.271,4.944-5.271c1.017,0,2.165,0.153,2.946,0.332l-0.331,3.344
		c-0.361-0.209-0.875-0.539-1.744-0.539c-1.357,0-1.777,1.172-1.777,2.375v1.929h3.52v2.949h-3.52v12.554H2.98V17.179L2.98,17.179z"
		/>
	<path d="M33.357,0c0,0,4.037-0.108,4.037,3.918c0,4.026,0,25.814,0,25.814h-4.037V0L33.357,0z"/>
	<path d="M42.517,0c0,0,4.032-0.108,4.032,3.918c0,4.026,0,25.814,0,25.814h-4.032V0L42.517,0z"/>
	<path d="M65.678,14.235c0,0,4.036-0.111,4.036,3.917c0,4.025,0,11.655,0,11.655h-4.036V14.235L65.678,14.235z"/>
	<path d="M60.714,17.414c-1.228-0.424-2.138-0.667-3.611-0.667c-1.088,0-2.381,0.392-2.381,1.718c0,2.471,7.016,0.902,7.016,6.5
		c0,3.615-3.22,5.064-6.504,5.064c-1.536,0-3.096-0.275-4.576-0.665l0.242-3.315c1.262,0.636,2.591,1.025,3.979,1.025
		c1.016,0,2.644-0.389,2.644-1.894c0-3.045-7.015-0.963-7.015-6.566c0-3.34,2.919-4.819,6.077-4.819
		c1.902,0,3.138,0.305,4.403,0.573L60.714,17.414L60.714,17.414z"/>
	<polygon points="65.789,7.469 69.823,7.469 69.823,11.331 65.789,11.331 65.789,7.469 	"/>
	<polygon points="73.633,14.156 78.382,14.156 81.424,19.218 84.408,14.156 88.679,14.156 84.051,21.533 89.288,29.668 
		84.472,29.668 81.005,23.886 77.515,29.668 73.083,29.668 78.419,21.533 73.633,14.156 	"/>
	<path d="M28.628,29.779h-3.826V27.67h-0.061c-1.237,1.506-2.981,2.47-5.087,2.47c-3.675,0-5.274-2.59-5.274-6.077v-9.792h4.038
		v8.284c0,1.892,0.032,4.451,2.622,4.451c2.918,0,3.552-3.159,3.552-5.145v-7.59h4.036V29.779L28.628,29.779z"/>
</g>
</svg>
