<?xml version="1.0" encoding="utf-8"?>
<!-- Generator: Adobe Illustrator 17.1.0, SVG Export Plug-In . SVG Version: 6.00 Build 0)  -->
<!DOCTYPE svg PUBLIC "-//W3C//DTD SVG 1.1//EN" "http://www.w3.org/Graphics/SVG/1.1/DTD/svg11.dtd">
<svg version="1.1" id="Calque_1" xmlns="http://www.w3.org/2000/svg" xmlns:xlink="http://www.w3.org/1999/xlink" x="0px" y="0px"
	 viewBox="277 769.8 132 30" enable-background="new 277 769.8 132 30" xml:space="preserve">
<g>
	<path d="M280,781.8v2.1h-3v2.9h3v12.5h4v-12.5h3.5v-3H284v-1.9c0-1.2,0.4-2.4,1.8-2.4c0.9,0,1.4,0.3,1.7,0.5l0.3-3.3
		c-0.8-0.2-1.9-0.3-2.9-0.3C281.7,776.6,280,778.7,280,781.8z M310.2,769.8v29.6h4c0,0,0-21.7,0-25.7S310.2,769.8,310.2,769.8z
		 M319.3,769.8v29.6h4c0,0,0-21.7,0-25.7S319.3,769.8,319.3,769.8z M342.3,784v15.5h4c0,0,0-7.6,0-11.6
		C346.4,783.9,342.3,784,342.3,784z M331.5,788.2c0-1.3,1.3-1.7,2.4-1.7c1.5,0,2.4,0.2,3.6,0.7l0.3-3c-1.3-0.3-2.5-0.6-4.4-0.6
		c-3.1,0-6,1.5-6,4.8c0,5.6,7,3.5,7,6.5c0,1.5-1.6,1.9-2.6,1.9c-1.4,0-2.7-0.4-3.9-1l-0.2,3.3c1.5,0.4,3,0.7,4.5,0.7
		c3.3,0,6.5-1.4,6.5-5C338.4,789.1,331.5,790.6,331.5,788.2z M342.5,781.1h4v-3.8h-4V781.1z M360.6,791.2l4.6-7.3H361l-3,5l-3-5
		h-4.7l4.8,7.3l-5.3,8.1h4.4l3.5-5.8l3.5,5.8h4.8L360.6,791.2z M301.5,791.6c0,2-0.6,5.1-3.5,5.1c-2.6,0-2.6-2.5-2.6-4.4V784h-4v9.7
		c0,3.5,1.6,6,5.3,6c2.1,0,3.8-1,5-2.5h0.1v2.1h3.8V784h-4V791.6z"/>
	<path d="M384.7,799.2c-0.4,0.4-1,0.7-1.6,0.7c-0.6,0-1.2-0.2-1.6-0.7c-0.2-0.2-0.3-0.4-0.4-0.6c-1.2,0.7-2.6,1.2-4.2,1.2
		c-4.5,0-8.2-3.7-8.2-8.2s3.7-8.2,8.2-8.2c1.5,0,2.9,0.4,4.1,1.1c0.1-0.3,0.3-0.5,0.5-0.7c0.4-0.4,1-0.7,1.6-0.7
		c0.6,0,1.2,0.2,1.6,0.7c0.4,0.4,0.7,1,0.7,1.6v12.2C385.4,798.2,385.2,798.8,384.7,799.2z M376.9,787.3c-2.4,0-4.3,1.9-4.3,4.3
		c0,2.4,1.9,4.3,4.3,4.3s4.3-1.9,4.3-4.3C381.2,789.2,379.3,787.3,376.9,787.3z"/>
	<path d="M392.3,783.6c-0.6,0-1.2,0.2-1.6,0.7c-0.4,0.4-0.7,1-0.7,1.6v11.7c0,0.6,0.2,1.2,0.7,1.6c0.4,0.4,1,0.7,1.6,0.7
		c0.6,0,1.2-0.2,1.6-0.7c0.4-0.4,0.7-1,0.7-1.6v-11.7c0-0.6-0.2-1.2-0.7-1.6C393.5,783.8,393,783.6,392.3,783.6z"/>
	<path d="M408.4,783.7c-0.4-0.4-0.9-0.6-1.5-0.6c-0.8,0-1.6,0.2-2.4,0.7c-0.4,0.2-0.8,0.5-1,0.8c-0.1-0.2-0.3-0.4-0.5-0.7
		c-0.4-0.4-1-0.7-1.6-0.7s-1.2,0.2-1.6,0.7c-0.4,0.4-0.7,1-0.7,1.6v11.9c0,0.6,0.2,1.2,0.7,1.6c0.4,0.4,1,0.7,1.6,0.7
		c0.6,0,1.2-0.2,1.6-0.7c0.4-0.4,0.7-1,0.7-1.6v-6.7c0-1,0.3-1.8,0.8-2.4c0.5-0.6,1.3-0.9,2.4-0.9c0.6,0,1.1-0.2,1.5-0.6
		c0.4-0.4,0.6-0.9,0.6-1.5C409.1,784.6,408.8,784.1,408.4,783.7z"/>
	<path d="M392.3,776.4c-0.6,0-1.2,0.2-1.6,0.7c-0.4,0.4-0.7,1-0.7,1.6v0.2c0,0.6,0.2,1.2,0.7,1.6c0.4,0.4,1,0.7,1.6,0.7
		c0.6,0,1.2-0.2,1.6-0.7c0.4-0.4,0.7-1,0.7-1.6v-0.2c0-0.6-0.2-1.2-0.7-1.6C393.5,776.6,393,776.4,392.3,776.4z"/>
</g>
</svg>
