<?xml version="1.0" encoding="utf-8"?>
<!-- Generator: Adobe Illustrator 17.0.1, SVG Export Plug-In . SVG Version: 6.00 Build 0)  -->
<!DOCTYPE svg PUBLIC "-//W3C//DTD SVG 1.1//EN" "http://www.w3.org/Graphics/SVG/1.1/DTD/svg11.dtd">
<svg version="1.1" id="Calque_1" xmlns="http://www.w3.org/2000/svg" xmlns:xlink="http://www.w3.org/1999/xlink" x="0px" y="0px"
	 width="135.659px" height="23.066px" viewBox="0 0 135.659 23.066" enable-background="new 0 0 135.659 23.066"
	 xml:space="preserve">
<g>
	<path fill-rule="evenodd" clip-rule="evenodd" fill="#12100B" d="M9.856,0.83v3.305C8.167,3.363,6.066,3.927,6.63,6.338
		c2.282,0.184,4.906,0.026,7.319,0.079c0.322,3.01-0.426,7.117,0,10.152c0.433,3.088,5.545,3.214,5.981-0.079
		c0.388-2.925-0.29-6.847,0-10.073c1.444,0.051,3.094-0.103,4.407,0.078v16.133h-4.249c-0.336-0.031-0.075-0.659-0.158-0.944
		c-1.356,0.794-2.565,1.575-4.879,1.338c-2.966-0.304-5.188-2.894-5.43-6.217c-0.147-2.019,0.108-4.257,0-6.611H6.708
		c-0.184,3.988-0.026,8.316-0.079,12.434H2.459V10.273H0.098c-0.13-1.106-0.13-2.75,0-3.856H2.38
		C2.259,3.125,3.302,0.396,6.158,0.043C7.513-0.125,8.892,0.212,9.856,0.83"/>
	<path fill-rule="evenodd" clip-rule="evenodd" fill="#12100B" d="M30.396,22.629h-4.407V2.246c1.434-0.743,2.938-1.416,4.328-2.203
		C30.501,7.414,30.344,15.126,30.396,22.629"/>
	<path fill-rule="evenodd" clip-rule="evenodd" fill="#12100B" d="M37.243,22.629h-4.407V2.246c1.434-0.743,2.938-1.416,4.328-2.203
		C37.348,7.414,37.191,15.126,37.243,22.629"/>
	<path fill-rule="evenodd" clip-rule="evenodd" d="M105.474,6.339c1.181,0.184,2.702,0.026,4.013,0.079v3.856h-4.013v4.25
		c0,1.37-0.254,3.161,0.315,3.856c0.752,0.92,2.67,0.37,3.463-0.315c-0.303,1.35-1.101,2.887-1.574,4.329
		c-0.636,0.205-1.035,0.474-1.653,0.551c-6.32,0.781-4.58-7.124-4.8-12.67h-3.069V6.496h3.069c0.772-2.56,1.952-4.71,4.171-5.823
		C105.579,2.404,105.421,4.476,105.474,6.339"/>
	<path fill-rule="evenodd" clip-rule="evenodd" d="M43.46,7.047c1.306-0.63,2.762-1.2,4.486-1.023
		c3.568,0.366,5.319,3.781,6.06,6.925c0.432-0.919,0.616-1.791,1.023-2.597c1.048-2.08,2.956-4.061,5.824-4.328
		c4.355-0.406,7.189,2.845,8.263,6.374c1.268-3.515,3.405-6.719,7.948-6.374c3.998,0.303,6.863,3.754,7.162,7.634
		c0.39,5.056-2.595,9.758-8.342,9.286c-3.787-0.311-5.612-3.08-6.69-6.296c-0.944,3.675-4.047,6.696-8.341,6.296
		c-3.772-0.351-5.829-3.365-6.768-6.847c-0.553,1.719-0.925,3.351-2.046,4.722c-1.721,2.104-5.725,2.925-8.499,1.101
		c-0.229,0.06,0.071,0.649-0.157,0.708h-3.935c0.188-4.916-0.254-10.047,0-14.244c0.201-3.318,1.738-5.989,3.935-7.476
		C43.565,2.797,43.408,5.027,43.46,7.047 M47.71,18.537c3.138-1.268,2.852-8.751-1.574-8.342c-1.015,0.094-2.376,0.779-2.597,1.653
		c-0.425,1.676,0.318,3.438,0,5.273C44.274,18.234,46.032,19.215,47.71,18.537 M59.671,18.064c1.719,1.326,4.137,0.394,4.88-0.944
		c1.656-2.984-0.02-7.305-3.384-6.847C57.796,10.733,57.347,16.271,59.671,18.064 M74.624,18.064
		c1.719,1.326,4.136,0.394,4.879-0.944c1.656-2.984-0.02-7.305-3.384-6.847C72.748,10.733,72.3,16.271,74.624,18.064"/>
	<path fill-rule="evenodd" clip-rule="evenodd" d="M97.132,7.283c-0.396,1.362-0.997,2.519-1.417,3.856
		c-0.987-0.224-2.281-0.829-3.778-0.945c-1.331-0.103-3.325-0.083-3.069,1.259c0.142,0.745,1.308,0.662,2.597,0.787
		c3.56,0.344,7.065,1.676,7.162,5.43c0.175,6.717-10.018,5.865-14.48,3.699c0.704-1.132,1.431-2.241,1.731-3.778
		c1.821,0.826,5.831,1.9,8.264,0.63c0.663-2.08-2.406-1.747-4.171-1.967c-3.078-0.384-5.881-1.795-5.509-5.43
		C84.995,5.614,92.638,5.037,97.132,7.283"/>
	<path fill-rule="evenodd" clip-rule="evenodd" d="M123.417,11.454c0.366-1.339,0.054-3.357,0.157-4.958
		c1.314-0.181,2.963-0.027,4.408-0.078V7.44c0.703-0.511,1.328-1.264,2.439-1.416c1.707-0.235,3.351,0.533,4.328,1.259
		c-0.445,1.312-0.829,2.685-1.338,3.935c-0.304,0.109-0.869-0.508-1.338-0.63c-1.084-0.282-2.136-0.019-2.754,0.394
		c-2.505,1.671-0.863,7.942-1.337,11.647h-4.408V15.94h-10.309c-0.031,3.009,4.419,3.945,6.217,1.967
		c1.013,0.666,1.925,1.432,2.833,2.204c-1.204,1.495-2.522,2.606-4.722,2.833c-5.276,0.545-8.644-3.506-8.657-8.42
		c-0.012-4.63,2.808-8.098,6.925-8.499C119.989,5.621,122.166,8.365,123.417,11.454 M113.659,12.241h5.902
		C119.319,9.299,113.891,9.257,113.659,12.241"/>
	<path fill-rule="evenodd" clip-rule="evenodd" d="M133.569,19.166c2.716-0.648,2.857,3.868,0,3.305
		C132.236,22.209,131.595,19.637,133.569,19.166"/>
</g>
</svg>
