<?xml version="1.0" encoding="utf-8"?>
<!-- Generator: Adobe Illustrator 17.0.1, SVG Export Plug-In . SVG Version: 6.00 Build 0)  -->
<!DOCTYPE svg PUBLIC "-//W3C//DTD SVG 1.1//EN" "http://www.w3.org/Graphics/SVG/1.1/DTD/svg11.dtd">
<svg version="1.1" id="Calque_1" xmlns="http://www.w3.org/2000/svg" xmlns:xlink="http://www.w3.org/1999/xlink" x="0px" y="0px"
	 width="176.729px" height="30.14px" viewBox="0 0 176.729 30.14" enable-background="new 0 0 176.729 30.14" xml:space="preserve">
<g>
	<path stroke="#000000" stroke-miterlimit="10" d="M99.669,26.527c0.775,0.507,2.146,1.044,3.458,1.044
		c1.908,0,2.802-0.954,2.802-2.146c0-1.252-0.745-1.938-2.683-2.653c-2.594-0.924-3.816-2.355-3.816-4.084
		c0-2.325,1.878-4.233,4.979-4.233c1.461,0,2.743,0.417,3.548,0.894l-0.656,1.908c-0.566-0.358-1.61-0.835-2.951-0.835
		c-1.55,0-2.415,0.894-2.415,1.968c0,1.192,0.865,1.729,2.743,2.445c2.504,0.954,3.786,2.206,3.786,4.353
		c0,2.534-1.968,4.323-5.396,4.323c-1.58,0-3.041-0.388-4.054-0.984L99.669,26.527z"/>
	<path stroke="#000000" stroke-miterlimit="10" d="M113.293,22.473c0.06,3.548,2.325,5.009,4.949,5.009
		c1.878,0,3.011-0.328,3.995-0.745l0.447,1.878c-0.924,0.417-2.504,0.895-4.8,0.895c-4.442,0-7.095-2.922-7.095-7.275
		c0-4.353,2.564-7.781,6.767-7.781c4.71,0,5.963,4.144,5.963,6.797c0,0.537-0.06,0.954-0.09,1.222H113.293z M120.985,20.594
		c0.03-1.669-0.686-4.263-3.637-4.263c-2.653,0-3.816,2.445-4.025,4.263H120.985z"/>
	<path stroke="#000000" stroke-miterlimit="10" d="M134.759,29.21l-0.209-1.819h-0.089c-0.805,1.133-2.355,2.147-4.412,2.147
		c-2.922,0-4.412-2.057-4.412-4.144c0-3.488,3.101-5.396,8.676-5.366V19.73c0-1.192-0.328-3.339-3.28-3.339
		c-1.342,0-2.743,0.417-3.756,1.073l-0.596-1.729c1.192-0.775,2.922-1.282,4.74-1.282c4.412,0,5.486,3.011,5.486,5.903v5.396
		c0,1.252,0.059,2.474,0.238,3.458H134.759z M134.371,21.846c-2.862-0.06-6.111,0.447-6.111,3.25c0,1.699,1.133,2.504,2.474,2.504
		c1.878,0,3.071-1.192,3.488-2.415c0.089-0.268,0.149-0.566,0.149-0.835V21.846z"/>
	<path stroke="#000000" stroke-miterlimit="10" d="M141.139,19.283c0-1.699-0.03-3.16-0.119-4.502h2.296l0.09,2.832h0.119
		c0.656-1.938,2.236-3.16,3.995-3.16c0.298,0,0.507,0.03,0.745,0.09v2.474c-0.269-0.06-0.537-0.09-0.894-0.09
		c-1.849,0-3.16,1.401-3.518,3.369c-0.06,0.358-0.12,0.775-0.12,1.222v7.692h-2.594V19.283z"/>
	<path stroke="#000000" stroke-miterlimit="10" d="M160.875,28.673c-0.686,0.358-2.206,0.835-4.144,0.835
		c-4.353,0-7.185-2.952-7.185-7.364c0-4.442,3.041-7.662,7.751-7.662c1.55,0,2.922,0.387,3.637,0.745l-0.596,2.027
		c-0.626-0.358-1.61-0.686-3.041-0.686c-3.309,0-5.098,2.445-5.098,5.456c0,3.339,2.146,5.396,5.008,5.396
		c1.491,0,2.474-0.388,3.22-0.716L160.875,28.673z"/>
	<path stroke="#000000" stroke-miterlimit="10" d="M163.946,8.043h2.624v9.003h0.059c0.417-0.745,1.073-1.401,1.878-1.848
		c0.775-0.447,1.699-0.745,2.683-0.745c1.938,0,5.038,1.192,5.038,6.171v8.586h-2.624v-8.288c0-2.325-0.864-4.293-3.339-4.293
		c-1.699,0-3.041,1.192-3.518,2.624c-0.149,0.358-0.179,0.745-0.179,1.252v8.705h-2.624V8.043z"/>
</g>
<g>
	<path d="M2.98,17.179H0v-2.949h2.98v-2.17c0-3.101,1.746-5.271,4.944-5.271c1.017,0,2.165,0.153,2.946,0.332l-0.331,3.344
		c-0.361-0.209-0.875-0.539-1.744-0.539c-1.357,0-1.777,1.172-1.777,2.375v1.929h3.52v2.949h-3.52v12.554H2.98V17.179L2.98,17.179z"
		/>
	<path d="M33.357,0c0,0,4.037-0.108,4.037,3.918c0,4.026,0,25.814,0,25.814h-4.037V0L33.357,0z"/>
	<path d="M42.517,0c0,0,4.032-0.108,4.032,3.918c0,4.026,0,25.814,0,25.814h-4.032V0L42.517,0z"/>
	<path d="M65.678,14.235c0,0,4.036-0.111,4.036,3.917c0,4.025,0,11.655,0,11.655h-4.036V14.235L65.678,14.235z"/>
	<path d="M60.714,17.414c-1.228-0.424-2.138-0.667-3.611-0.667c-1.088,0-2.381,0.392-2.381,1.718c0,2.471,7.016,0.902,7.016,6.5
		c0,3.615-3.22,5.064-6.504,5.064c-1.536,0-3.096-0.275-4.576-0.665l0.242-3.315c1.262,0.636,2.591,1.025,3.979,1.025
		c1.016,0,2.644-0.389,2.644-1.894c0-3.045-7.015-0.963-7.015-6.566c0-3.34,2.919-4.819,6.077-4.819
		c1.902,0,3.138,0.305,4.403,0.573L60.714,17.414L60.714,17.414z"/>
	<polygon points="65.789,7.469 69.823,7.469 69.823,11.331 65.789,11.331 65.789,7.469 	"/>
	<polygon points="73.633,14.156 78.382,14.156 81.424,19.218 84.408,14.156 88.679,14.156 84.051,21.533 89.288,29.668 
		84.472,29.668 81.005,23.886 77.515,29.668 73.083,29.668 78.419,21.533 73.633,14.156 	"/>
	<path d="M28.628,29.779h-3.826V27.67h-0.061c-1.237,1.506-2.981,2.47-5.087,2.47c-3.675,0-5.274-2.59-5.274-6.077v-9.792h4.038
		v8.284c0,1.892,0.032,4.451,2.622,4.451c2.918,0,3.552-3.159,3.552-5.145v-7.59h4.036V29.779L28.628,29.779z"/>
</g>
</svg>
