<?xml version="1.0" encoding="utf-8"?>
<!-- Generator: Adobe Illustrator 17.0.1, SVG Export Plug-In . SVG Version: 6.00 Build 0)  -->
<!DOCTYPE svg PUBLIC "-//W3C//DTD SVG 1.1//EN" "http://www.w3.org/Graphics/SVG/1.1/DTD/svg11.dtd">
<svg version="1.1" id="Calque_1" xmlns="http://www.w3.org/2000/svg" xmlns:xlink="http://www.w3.org/1999/xlink" x="0px" y="0px"
	 width="198.867px" height="34.967px" viewBox="0 0 198.867 34.967" enable-background="new 0 0 198.867 34.967"
	 xml:space="preserve">
<g>
	<path d="M15.184,7.984h4.848v16.61c0,3.28-0.659,5.691-1.979,7.236c-1.77,2.091-4.437,3.137-8.002,3.137
		c-1.901,0-3.499-0.238-4.794-0.713c-1.295-0.475-2.388-1.173-3.279-2.094C1.087,31.238,0.428,30.119,0,28.799h5.364
		c0.475,0.547,1.087,0.96,1.836,1.239c0.748,0.279,1.633,0.419,2.656,0.419c1.307,0,2.358-0.202,3.154-0.606
		c0.796-0.404,1.357-0.927,1.684-1.569c0.327-0.641,0.49-1.746,0.49-3.314c-0.855,0.855-1.753,1.47-2.691,1.844
		c-0.939,0.375-2.002,0.562-3.19,0.562c-2.602,0-4.8-0.939-6.594-2.816c-1.794-1.877-2.691-4.253-2.691-7.128
		c0-3.077,0.95-5.548,2.851-7.414c1.723-1.687,3.778-2.531,6.166-2.531c1.117,0,2.171,0.205,3.163,0.615
		c0.992,0.409,1.987,1.084,2.985,2.023V7.984z M10.141,12.029c-1.532,0-2.798,0.514-3.796,1.542
		c-0.998,1.028-1.497,2.32-1.497,3.876c0,1.616,0.511,2.941,1.532,3.974c1.022,1.034,2.305,1.55,3.85,1.55
		c1.509,0,2.753-0.505,3.734-1.515c0.98-1.01,1.47-2.334,1.47-3.974c0-1.616-0.494-2.929-1.479-3.939
		C12.969,12.535,11.697,12.029,10.141,12.029z M24.191,7.984h4.17v2.441c0.451-0.962,1.052-1.693,1.8-2.192
		c0.748-0.499,1.568-0.748,2.459-0.748c0.629,0,1.289,0.167,1.978,0.499l-1.515,4.188c-0.57-0.285-1.04-0.428-1.408-0.428
		c-0.748,0-1.381,0.463-1.898,1.39c-0.517,0.927-0.775,2.745-0.775,5.454l0.018,0.944v7.842h-4.83V7.984z M50.935,7.984H55.8v19.39
		h-4.865v-2.049c-0.95,0.903-1.902,1.554-2.857,1.951c-0.955,0.398-1.991,0.597-3.107,0.597c-2.504,0-4.67-0.971-6.497-2.914
		c-1.828-1.943-2.741-4.358-2.741-7.245c0-2.994,0.884-5.447,2.652-7.36c1.768-1.913,3.916-2.869,6.444-2.869
		c1.163,0,2.255,0.22,3.275,0.659c1.021,0.44,1.964,1.099,2.831,1.978V7.984z M45.82,11.976c-1.504,0-2.753,0.532-3.748,1.595
		c-0.995,1.063-1.492,2.427-1.492,4.09c0,1.676,0.506,3.054,1.518,4.135c1.012,1.081,2.259,1.622,3.739,1.622
		c1.528,0,2.795-0.531,3.801-1.595c1.006-1.063,1.51-2.456,1.51-4.179c0-1.687-0.504-3.053-1.51-4.099
		C48.633,12.499,47.359,11.976,45.82,11.976z M60.719,7.984h4.865v1.987c1.103-0.93,2.103-1.577,2.999-1.94
		c0.896-0.364,1.812-0.546,2.749-0.546c1.922,0,3.553,0.671,4.894,2.014c1.127,1.141,1.69,2.828,1.69,5.061v12.814h-4.812v-8.491
		c0-2.314-0.104-3.851-0.311-4.61c-0.208-0.76-0.569-1.338-1.085-1.736c-0.516-0.398-1.153-0.597-1.911-0.597
		c-0.984,0-1.828,0.33-2.533,0.988c-0.706,0.659-1.194,1.57-1.467,2.733c-0.142,0.605-0.213,1.917-0.213,3.934v7.78h-4.865V7.984z
		 M96.933,0.499h4.866v26.875h-4.866v-2.049c-0.949,0.903-1.902,1.554-2.857,1.951c-0.956,0.398-1.991,0.597-3.106,0.597
		c-2.504,0-4.67-0.971-6.497-2.914c-1.828-1.943-2.741-4.358-2.741-7.245c0-2.994,0.884-5.447,2.652-7.36
		c1.768-1.913,3.916-2.869,6.444-2.869c1.163,0,2.255,0.22,3.275,0.659c1.02,0.44,1.964,1.099,2.83,1.978V0.499z M91.819,11.976
		c-1.504,0-2.753,0.532-3.748,1.595c-0.995,1.063-1.492,2.427-1.492,4.09c0,1.676,0.506,3.054,1.518,4.135
		c1.013,1.081,2.259,1.622,3.739,1.622c1.527,0,2.795-0.531,3.801-1.595c1.006-1.063,1.51-2.456,1.51-4.179
		c0-1.687-0.504-3.053-1.51-4.099C94.631,12.499,93.358,11.976,91.819,11.976z"/>
	<path d="M106.699,7.984h4.919v9.339c0,1.818,0.125,3.08,0.375,3.787c0.25,0.708,0.652,1.256,1.206,1.649
		c0.554,0.392,1.236,0.588,2.046,0.588c0.81,0,1.497-0.193,2.063-0.579c0.566-0.386,0.985-0.953,1.259-1.702
		c0.203-0.558,0.304-1.752,0.304-3.582V7.984h4.865V16.2c0,3.386-0.267,5.703-0.802,6.95c-0.654,1.521-1.616,2.689-2.887,3.502
		c-1.272,0.814-2.888,1.221-4.848,1.221c-2.127,0-3.846-0.475-5.16-1.426c-1.313-0.95-2.237-2.275-2.771-3.975
		c-0.38-1.176-0.571-3.315-0.571-6.415V7.984z M127.977,7.984h4.865v1.987c1.104-0.93,2.103-1.577,2.999-1.94
		c0.896-0.364,1.812-0.546,2.75-0.546c1.922,0,3.554,0.671,4.894,2.014c1.127,1.141,1.69,2.828,1.69,5.061v12.814h-4.812v-8.491
		c0-2.314-0.104-3.851-0.311-4.61c-0.208-0.76-0.569-1.338-1.085-1.736c-0.516-0.398-1.153-0.597-1.911-0.597
		c-0.984,0-1.829,0.33-2.534,0.988c-0.705,0.659-1.195,1.57-1.467,2.733c-0.142,0.605-0.214,1.917-0.214,3.934v7.78h-4.865V7.984z
		 M151.778,0c0.852,0,1.584,0.309,2.194,0.926c0.61,0.618,0.915,1.366,0.915,2.246c0,0.867-0.302,1.607-0.906,2.219
		c-0.605,0.612-1.327,0.918-2.168,0.918c-0.865,0-1.602-0.312-2.213-0.936c-0.61-0.624-0.915-1.381-0.915-2.272
		c0-0.855,0.302-1.586,0.906-2.192C150.196,0.303,150.924,0,151.778,0z M149.345,7.984h4.865v19.39h-4.865V7.984z M167.737,7.485
		c1.829,0,3.549,0.457,5.16,1.372c1.609,0.915,2.866,2.157,3.769,3.725c0.903,1.568,1.354,3.261,1.354,5.079
		c0,1.83-0.454,3.541-1.363,5.133c-0.909,1.592-2.148,2.837-3.716,3.734c-1.568,0.897-3.297,1.346-5.186,1.346
		c-2.78,0-5.154-0.989-7.12-2.968c-1.967-1.978-2.949-4.38-2.949-7.209c0-3.03,1.111-5.554,3.333-7.574
		C162.966,8.365,165.206,7.485,167.737,7.485z M167.817,12.065c-1.511,0-2.77,0.526-3.776,1.577s-1.508,2.397-1.508,4.037
		c0,1.687,0.497,3.054,1.491,4.099c0.994,1.046,2.252,1.568,3.775,1.568c1.523,0,2.791-0.528,3.802-1.586
		c1.011-1.058,1.518-2.418,1.518-4.081c0-1.663-0.497-3.015-1.491-4.054C170.635,12.585,169.365,12.065,167.817,12.065z
		 M181.669,7.984h4.865v1.987c1.103-0.93,2.103-1.577,2.999-1.94c0.896-0.364,1.812-0.546,2.75-0.546
		c1.922,0,3.553,0.671,4.894,2.014c1.127,1.141,1.69,2.828,1.69,5.061v12.814h-4.812v-8.491c0-2.314-0.104-3.851-0.311-4.61
		c-0.208-0.76-0.569-1.338-1.085-1.736c-0.516-0.398-1.153-0.597-1.911-0.597c-0.984,0-1.829,0.33-2.534,0.988
		c-0.705,0.659-1.194,1.57-1.467,2.733c-0.142,0.605-0.214,1.917-0.214,3.934v7.78h-4.865V7.984z"/>
</g>
</svg>
